HIERARCHY
ROOT Hips
{
  OFFSET 13.6774 106.653 -34.4427
  CHANNELS 6 Xposition Yposition Zposition Zrotation Xrotation Yrotation
  JOINT ToSpine
  {
    OFFSET -2.69724 7.43032 -0.144315
    CHANNELS 3 Zrotation Xrotation Yrotation
    JOINT Spine
    {
      OFFSET -0.0310711 10.7595 1.96963
      CHANNELS 3 Zrotation Xrotation Yrotation
      JOINT Spine1
      {
        OFFSET 19.9056 3.91189 0.764692
        CHANNELS 3 Zrotation Xrotation Yrotation
        JOINT Neck
        {
          OFFSET 25.9749 7.03908 -0.130764
          CHANNELS 3 Zrotation Xrotation Yrotation
          JOINT Head
          {
            OFFSET 9.52751 0.295786 -0.907742
            CHANNELS 3 Zrotation Xrotation Yrotation
            End Site
            {
              OFFSET 16.4037 0.713936 2.7358
            }
          }
        }
        JOINT LeftShoulder
        {
          OFFSET 17.7449 4.33886 11.7777
          CHANNELS 3 Zrotation Xrotation Yrotation
          JOINT LeftArm
          {
            OFFSET 0.911315 1.27913 9.80584
            CHANNELS 3 Zrotation Xrotation Yrotation
            JOINT LeftForeArm
            {
              OFFSET 28.6126 1.18197 -3.53199
              CHANNELS 3 Zrotation Xrotation Yrotation
              JOINT LeftHand
              {
                OFFSET 27.5088 0.0218783 0.327423
                CHANNELS 3 Zrotation Xrotation Yrotation
                End Site
                {
                  OFFSET 18.6038 -0.000155887 0.382096
                }
              }
            }
          }
        }
        JOINT RightShoulder
        {
          OFFSET 17.1009 2.89543 -12.2328
          CHANNELS 3 Zrotation Xrotation Yrotation
          JOINT RightArm
          {
            OFFSET 1.4228 0.178766 -10.211
            CHANNELS 3 Zrotation Xrotation Yrotation
            JOINT RightForeArm
            {
              OFFSET 28.733 1.87905 2.64907
              CHANNELS 3 Zrotation Xrotation Yrotation
              JOINT RightHand
              {
                OFFSET 27.4588 0.290562 -0.101845
                CHANNELS 3 Zrotation Xrotation Yrotation
                End Site
                {
                  OFFSET 17.8396 -0.255518 -0.000602873
                }
              }
            }
          }
        }
      }
    }
  }
  JOINT LeftUpLeg
  {
    OFFSET -5.61296 -2.22332 -10.2353
    CHANNELS 3 Zrotation Xrotation Yrotation
    JOINT LeftLeg
    {
      OFFSET 2.56703 -44.7417 -7.93097
      CHANNELS 3 Zrotation Xrotation Yrotation
      JOINT LeftFoot
      {
        OFFSET 3.16933 -46.5642 -3.96578
        CHANNELS 3 Zrotation Xrotation Yrotation
        JOINT LeftToeBase
        {
          OFFSET 0.346054 -6.02161 12.8035
          CHANNELS 3 Zrotation Xrotation Yrotation
          End Site
          {
            OFFSET 0.134235 -1.35082 5.13018
          }
        }
      }
    }
  }
  JOINT RightUpLeg
  {
    OFFSET -5.7928 -1.72406 10.6446
    CHANNELS 3 Zrotation Xrotation Yrotation
    JOINT RightLeg
    {
      OFFSET -2.57161 -44.7178 -7.85259
      CHANNELS 3 Zrotation Xrotation Yrotation
      JOINT RightFoot
      {
        OFFSET -3.10148 -46.5936 -4.03391
        CHANNELS 3 Zrotation Xrotation Yrotation
        JOINT RightToeBase
        {
          OFFSET -0.0828122 -6.13587 12.8035
          CHANNELS 3 Zrotation Xrotation Yrotation
          End Site
          {
            OFFSET -0.131328 -1.35082 5.13018
          }
        }
      }
    }
  }
}
MOTION
Frames: 15
Frame Time: 0.03333333333333333
0.0000 93.1000 0.0000 60.0771 -39.5320 -19.6259 -70.8671 -0.0023 87.9099 89.8366 67.1157 -7.1609 -2.1413 14.3093 8.9275 -136.4591 32.9945 157.0516 -159.8323 75.0063 -179.8983 0.3783 -14.6812 -18.3167 -61.9500 36.9230 -154.3553 9.3625 -2.3610 -99.9705 -0.1034 0.1299 -0.4286 -1.1588 4.3226 29.8983 -133.7850 -30.9074 98.3516 17.0914 8.2241 115.7739 0.1765 -0.7545 -0.4990 -52.1614 17.0665 95.6613 -1.3088 30.0958 -4.4001 -0.8784 -2.5076 -1.0227 2.5908 -7.4230 4.3135 -32.2400 -16.3834 92.3458 0.9597 43.3449 -1.9741 -7.3346 2.8747 0.6240 0.5180 -10.8287 -0.3393 
0.0000 93.1000 0.0000 60.1001 -41.9124 -21.2579 -70.8619 0.1349 87.9438 94.1295 67.5333 -11.1252 -3.0102 15.1245 8.8771 -136.4902 32.8617 155.9201 -158.9119 74.7295 -179.4698 0.6860 -14.9829 -18.8224 -61.6429 36.9644 -153.5207 8.9008 -2.3846 -99.9927 -0.3882 0.3091 -0.5171 -1.1916 4.2412 32.0290 -133.8897 -29.5294 101.1283 15.9585 7.5161 113.7219 0.3459 -1.0699 -0.6392 -51.2795 15.0919 96.2566 -2.3135 35.0845 -3.4228 0.1041 -7.9089 -1.6584 3.2164 -9.6825 8.5202 -29.1973 -16.8176 96.5109 1.5738 46.3506 -1.9237 -4.7152 4.6512 0.4054 0.4254 -11.7990 -2.1460 
0.0000 93.1000 0.0000 59.0923 -44.6731 -23.3207 -70.9915 0.3021 87.7708 98.9814 67.7787 -15.7287 -3.4302 15.9832 8.4332 -135.4975 33.3403 156.8750 -158.6789 75.4610 -177.2861 0.7172 -15.4289 -19.2796 -63.1863 36.1524 -152.4104 7.5239 -2.1571 -100.0660 -0.4097 0.4442 -0.7785 -1.3897 4.3712 33.4029 -134.9077 -27.8809 103.3501 14.3727 6.5480 112.8660 0.4105 -1.2699 -0.8399 -51.2136 13.7127 100.1097 -2.2397 38.2543 -3.4232 0.1774 -12.2791 -1.8951 3.3007 -9.9860 10.7164 -25.4500 -18.4265 97.1915 1.7598 49.1497 1.2016 -0.6804 6.9088 -0.4285 0.2089 -10.9044 -6.6377 
0.0000 93.1000 0.0000 60.5371 -46.0951 -23.1818 -71.1202 2.1649 87.8061 101.9295 68.0901 -18.4256 -3.9059 16.3773 7.5889 -135.9855 33.5705 157.8629 -157.3989 76.2733 -178.6834 1.2923 -15.9459 -19.9306 -63.0553 34.6325 -151.3026 5.8233 -0.7927 -100.3327 0.5737 0.8186 0.7363 0.8060 4.7051 35.3338 -134.9786 -25.3075 105.0976 12.3013 3.9429 111.6343 -0.4673 1.4177 2.2600 -50.1943 14.7496 101.1398 -3.5582 42.6846 -5.6039 -0.0083 -12.9251 -2.5348 1.9581 -10.4083 12.8578 -23.1005 -19.8107 95.1724 2.8369 52.3381 3.1956 -1.3871 5.2496 -1.0588 4.3970 -12.2651 -10.4672 
0.0000 93.1000 0.0000 61.1248 -46.4931 -21.7814 -71.0582 0.0739 87.5494 103.0058 68.0223 -18.7040 -4.1037 16.2344 7.8389 -136.8525 33.5806 158.3977 -158.6507 75.7141 178.4390 0.5516 -16.3182 -20.5082 -61.8826 35.1223 -151.4382 7.9439 -2.2636 -100.5888 0.1984 0.0112 0.0359 -1.4051 4.7565 35.1470 -134.3904 -24.2553 103.1604 12.2837 6.1623 113.2033 0.1787 0.2803 0.4009 -48.3607 14.5559 101.2394 -3.5009 47.2344 -8.5364 -0.6269 -15.7851 -1.4485 3.9737 -13.0579 15.3217 -22.9517 -21.2081 92.0021 4.7502 55.2700 9.8945 1.4469 4.9761 -1.4448 1.8943 -18.5375 -10.5123 
0.0000 93.1000 0.0000 62.1264 -46.8395 -20.8671 -70.9977 0.6979 87.8845 103.0403 68.1743 -18.1464 -4.1522 16.0545 8.0116 -137.2433 33.9670 159.3236 -157.2263 75.1910 178.1949 0.5321 -16.1656 -21.1298 -61.5955 34.9562 -150.3422 9.0858 -1.9166 -101.2241 0.2505 0.6004 0.2730 -1.2233 5.0194 36.0921 -134.8409 -24.4787 101.9093 12.4984 5.7623 113.8924 0.0771 0.6475 0.8373 -47.5791 13.9971 101.1516 -4.0592 48.4346 -8.1391 -0.0074 -16.9273 -2.2594 3.3892 -11.5537 16.1528 -22.6056 -22.2323 89.1496 4.3260 57.0953 5.6906 0.1594 4.0298 -0.9875 2.7602 -22.3234 -2.9105 
0.0000 93.1000 0.0000 62.0736 -47.1613 -21.3304 -71.0681 0.5687 87.9324 101.1220 68.6118 -17.0275 -4.1443 16.0857 7.8360 -137.2780 34.8075 159.0825 -157.5666 76.0260 178.9919 0.1291 -15.6479 -22.6187 -59.8779 33.1757 -149.2998 10.3557 -2.7953 -101.3737 0.3825 0.2726 0.5516 -1.5524 5.1293 37.0733 -134.4593 -21.9603 101.1727 12.0168 6.0986 114.7939 -0.3619 1.1748 1.0684 -48.4016 12.1766 101.9878 -3.9486 48.2369 -7.8459 0.7927 -18.0233 -2.2501 3.3820 -11.6311 18.0118 -24.2115 -24.0010 86.1648 3.5271 55.2346 0.5438 0.0133 2.0143 -0.9849 2.2998 -18.6060 -0.3849 
0.0000 93.1000 0.0000 63.3337 -46.7743 -21.2657 -70.8958 -0.4723 87.6800 101.2681 68.8481 -17.2535 -4.4229 16.0299 8.1562 -136.9585 34.2860 159.1552 -156.4099 75.8552 175.6895 -0.5303 -15.9219 -23.2693 -59.9819 32.7434 -149.5967 8.9865 -2.2937 -102.2180 -0.1104 -0.2970 0.0806 -2.9127 4.8396 38.1351 -134.5216 -21.0772 100.0411 10.5233 6.2502 116.0402 0.0520 0.0702 -0.2762 -48.4468 11.9664 101.9694 -3.9342 48.5021 -7.9581 0.7155 -19.1263 -2.0276 3.4863 -10.9759 19.4001 -26.0332 -24.3795 83.2559 1.8934 51.5859 -0.7764 0.1869 -1.1356 -0.4829 0.5736 -11.3546 -1.2123 
0.0000 93.1000 0.0000 63.1937 -47.1690 -20.0338 -71.0133 0.2218 87.8527 102.0028 68.8720 -17.8362 -4.1512 16.1327 8.2998 -137.0876 33.9186 159.2449 -159.0238 76.0894 -178.7654 -0.4096 -16.0721 -23.2124 -60.0603 32.7175 -148.4335 8.2770 -1.8394 -101.8436 0.3861 -0.3630 0.4689 -1.8559 4.6123 38.2764 -134.8983 -20.9241 98.1247 10.7597 5.3051 117.0836 -0.5316 0.7648 0.6155 -47.9371 11.9677 101.4486 -4.3217 48.9566 -7.0227 0.4489 -19.5202 -2.2411 2.6473 -10.6030 19.0417 -27.7508 -23.3355 83.0652 2.1328 48.6683 -3.2536 1.1697 -2.5402 -0.4465 0.7744 -7.0379 1.0560 
0.0000 93.1000 0.0000 62.7556 -47.7797 -19.8447 -71.1885 0.1155 87.6499 101.2401 69.2026 -18.1057 -4.0744 16.8066 8.8994 -137.9358 34.2303 161.0870 -160.8855 76.0155 -178.5034 -0.2162 -16.1571 -23.0318 -61.2323 32.8816 -148.5372 10.5759 -2.8460 -102.3146 0.1341 -0.0826 0.0927 -1.8462 4.9861 38.9581 -135.7044 -19.9672 98.1192 9.7041 5.1727 116.9982 -0.1972 0.1679 0.0454 -47.2556 11.0998 100.5350 -4.0409 50.4667 -6.6590 0.9366 -19.7618 -2.3752 2.6659 -11.8108 19.2462 -27.6591 -23.4175 84.9653 1.9586 48.4671 -1.8283 1.5101 -1.3430 -0.7462 1.2519 -10.0159 -1.5429 
0.0000 93.1000 0.0000 63.7491 -47.1919 -19.9877 -71.1531 -0.2790 87.6849 102.0898 68.8718 -18.0134 -4.2730 17.0203 8.7874 -138.0359 34.6491 160.9941 -161.9156 75.9631 -176.0450 -0.4428 -16.1220 -23.7901 -62.1859 33.1506 -148.5314 10.3232 -3.0837 -102.1787 -0.0234 -0.4229 -0.0164 -2.1150 5.2870 38.0866 -136.6436 -19.7305 97.8459 9.1702 5.0142 116.8301 -0.2949 0.2999 -0.0615 -47.1352 10.9641 99.7830 -4.2760 50.5509 -6.7590 1.2399 -20.3125 -1.9566 2.5267 -10.9741 20.2108 -27.9442 -24.1267 83.9201 2.1059 48.4541 -2.0206 1.0218 -0.1905 -0.9964 0.9356 -10.1111 -0.2011 
0.0000 93.1000 0.0000 64.0009 -47.1030 -18.9699 -71.1190 0.0269 87.6554 101.2815 68.9510 -17.1659 -4.1753 16.8996 8.3687 -137.9404 34.0226 162.1882 -162.7002 75.8494 -175.9876 -0.0013 -15.9213 -23.3707 -62.1359 33.1171 -148.5467 10.7004 -3.3320 -101.9720 0.0589 -0.0854 0.0094 -1.8435 5.0355 38.1104 -136.8174 -19.7653 97.3774 9.7712 4.7968 115.9630 -0.0967 -0.0117 -0.2362 -46.0835 11.0588 100.0325 -4.4976 50.7084 -6.8329 2.1279 -20.0178 -2.1745 2.6193 -11.7134 20.2319 -28.8041 -24.3145 82.3067 2.2319 47.2889 -1.5057 1.5694 -0.1448 -1.0333 1.0908 -9.2091 0.6887 
0.0000 93.1000 0.0000 64.0772 -47.0969 -19.2290 -71.1904 -0.4104 87.7307 100.0882 69.6027 -16.0813 -3.9628 17.1153 8.8474 -137.8192 33.6629 160.4948 -160.7160 76.0110 -178.2408 -0.3707 -16.1560 -23.2850 -62.3064 32.9761 -149.6382 9.9858 -2.6954 -101.1647 0.0772 -0.4009 0.2584 -2.2250 4.8565 38.4554 -136.7447 -19.2091 98.0682 9.0469 4.1575 115.6701 0.0067 0.3045 0.1402 -47.0109 11.2052 100.6578 -4.5452 50.4478 -7.2251 2.0065 -19.9088 -1.8324 2.7749 -11.2004 19.9603 -29.8768 -25.1004 81.2331 2.4399 46.2997 -1.3948 1.5460 -0.0320 -1.1381 -0.0871 -7.8838 3.3519 
0.0000 93.1000 0.0000 64.0154 -47.0930 -18.3755 -71.1855 -0.1117 87.8253 99.1381 69.9423 -14.9112 -3.4519 17.0893 9.0075 -137.9024 33.7936 162.7604 -161.1330 75.4165 -178.1951 0.0155 -16.0505 -23.0936 -62.1358 32.7717 -149.7099 10.1965 -3.1294 -101.9089 0.0088 -0.0090 0.0173 -2.2016 4.9086 39.0357 -135.6457 -18.8735 98.1319 8.8503 4.1211 114.8243 -0.1358 -0.0094 0.0250 -46.8119 12.1937 100.7812 -4.3567 50.4744 -7.6866 1.9178 -20.0275 -2.0482 2.9776 -10.7898 19.9344 -29.6727 -25.2464 79.8991 2.0085 45.3565 -0.6505 1.8439 0.8950 -1.0335 0.0957 -7.8334 3.0443 
0.0000 93.1000 0.0000 64.0924 -47.1296 -17.7366 -71.1955 -0.0908 87.8943 100.1605 69.9071 -15.8948 -3.9693 17.4805 8.7306 -137.8764 33.8116 161.9011 -163.2043 75.1983 -176.4981 -0.2295 -15.8655 -22.9659 -60.9630 32.9880 -149.4277 11.7923 -3.0250 -102.0086 0.0534 -0.1841 0.2206 -2.1278 5.0118 39.0670 -135.5112 -19.0290 98.2394 9.6895 4.0083 114.9370 -0.2544 0.1658 0.1707 -46.2058 12.1997 99.8733 -4.1112 50.5325 -6.7784 1.4118 -19.8720 -2.1310 2.2311 -10.6358 19.2479 -30.9846 -24.3079 79.9925 2.0470 44.3848 -0.4813 1.3433 1.7080 -1.2938 0.7275 -8.7693 0.0601 
